# xmcd
#
# Track frame offsets: 
#        150
#        14723
#        31505
#        44011
#        55498
#        71357
#        80281
#        93599
#        106199
#        118292
#        141216
#        153416
#        165915
#        177516
#        190771
#        214587
#
# Disc length: 3030 seconds
#
# Revision: 1
# Processed by: cddbd v1.5.2PL0 Copyright (c) Steve Scherf et al.
# Submitted via: ExactAudioCopy v0.99pb4
#
DISCID=d70bd410
DTITLE=B.B. King - B.B. King and Friends [CD1]
DYEAR=2007
DGENRE=Blues
TTITLE0=B.B. Boogie
TTITLE1=The Other Night Blues
TTITLE2=From the Bottom (Sonny Boy Williamson)
TTITLE3=City of New Orleans (Sonny Boy Williamson)
TTITLE4=Walkin' anf Cryin'
TTITLE5=A New Way of Driving
TTITLE6=Catfish Blues (Bobo "Slim" Thomas)
TTITLE7=Dirty Disposition (Luther Huff)
TTITLE8=1951 Blues (Luther Huff)
TTITLE9=Every Day I Have the Blues
TTITLE10=Delta Blues (Big Joe Williams and His 9 String Guitar)
TTITLE11=Mama Don't Allow Me (Big Joe Williams and His 9 String Guitar
TTITLE11=)
TTITLE12=Whistling Pines (Big Joe Williams and His 9 String Guitar)
TTITLE13=You Got to Move (Mississippi Fred McDowell)
TTITLE14=You Done Lost Your Good Thing Now
TTITLE15=Please Love Me
EXTD=
EXTT0=
EXTT1=
EXTT2=
EXTT3=
EXTT4=
EXTT5=
EXTT6=
EXTT7=
EXTT8=
EXTT9=
EXTT10=
EXTT11=
EXTT12=
EXTT13=
EXTT14=
EXTT15=
PLAYORDER=
